<?xml version="1.0" encoding="UTF-8"?>
<svg version="1.1" xmlns="http://www.w3.org/2000/svg" width="672" height="531">
<path d="M0 0 C221.76 0 443.52 0 672 0 C672 175.23 672 350.46 672 531 C450.24 531 228.48 531 0 531 C0 355.77 0 180.54 0 0 Z " fill="#FCFCFD" transform="translate(0,0)"/>
<path d="M0 0 C0.83965302 -0.00067474 1.67930603 -0.00134949 2.54440308 -0.00204468 C16.11950787 0.01522583 29.32977276 0.6401375 42.6875 3.25 C43.52313477 3.41097168 44.35876953 3.57194336 45.21972656 3.73779297 C56.59482883 6.01587713 67.64007743 9.36767912 78.6875 12.875 C80.50544067 13.45145264 80.50544067 13.45145264 82.36010742 14.03955078 C84.06904175 14.59618408 84.06904175 14.59618408 85.8125 15.1640625 C86.82570313 15.4935791 87.83890625 15.8230957 88.8828125 16.16259766 C91.71783678 17.26176184 94.11862267 18.63475268 96.6875 20.25 C97.94389744 20.74654031 99.21489526 21.20835552 100.5 21.625 C104.07494893 22.92017558 107.01097675 24.60218571 110.1796875 26.68359375 C112.81829023 28.33169297 115.51453126 29.81750406 118.24511719 31.3059082 C131.53118784 38.57810205 143.22553114 47.38347003 154.6875 57.25 C153.2025 57.745 153.2025 57.745 151.6875 58.25 C151.06476196 57.56744141 151.06476196 57.56744141 150.42944336 56.87109375 C148.61259724 55.18029372 147.07189987 54.32204259 144.81640625 53.3125 C144.07712891 52.97476563 143.33785156 52.63703125 142.57617188 52.2890625 C141.80853516 51.94617188 141.04089844 51.60328125 140.25 51.25 C132.20145411 47.63664438 132.20145411 47.63664438 129.55859375 45.6484375 C126.96085977 43.70691607 124.25526734 42.9044985 121.1875 41.875 C116.80623225 40.38074523 112.53440954 38.77924407 108.3125 36.875 C93.32922526 30.61392068 77.61086005 26.94180608 61.625 24.375 C60.36647217 24.17197266 59.10794434 23.96894531 57.8112793 23.75976562 C-4.99417793 14.23367384 -69.45088146 30.97947601 -120.58203125 68.4453125 C-167.56420833 103.51868907 -200.39913738 155.6083606 -209.71923828 213.7890625 C-215.17688347 252.47616762 -210.79063299 293.91828547 -187.77734375 326.41796875 C-174.33767169 344.18858372 -157.31144079 355.33814516 -136.4375 362.5625 C-135.46973633 362.90776733 -135.46973633 362.90776733 -134.48242188 363.26000977 C-120.35892727 367.87587383 -105.55787679 368.80464339 -90.8125 368.6875 C-89.99033997 368.68445862 -89.16817993 368.68141724 -88.32110596 368.67828369 C-73.68455674 368.5988236 -59.66691821 367.19556616 -45.3125 364.25 C-44.14477051 364.01974121 -42.97704102 363.78948242 -41.77392578 363.55224609 C-27.75911606 360.77683352 -13.89420321 357.70804087 -0.3125 353.25 C0.42645508 353.00749512 1.16541016 352.76499023 1.92675781 352.51513672 C5.79337641 351.23949275 9.65388848 349.94648111 13.51171875 348.64453125 C16.90952907 347.50227566 20.31996465 346.41732667 23.75 345.375 C38.46902277 340.90012122 53.10112687 336.13823028 67.6875 331.25 C71.6866812 329.91420118 75.68685551 328.58140935 79.6875 327.25 C80.72438965 326.90404785 81.7612793 326.5580957 82.82958984 326.20166016 C96.21947176 321.75343331 109.56656223 317.79561645 123.36181641 314.80908203 C125.26942548 314.3505029 127.15935769 313.81897203 129.04223633 313.26757812 C163.88189243 303.54206164 213.96860395 300.67703465 248.6875 312.25 C248.86970208 315.93959214 248.4207046 318.44106186 246.9375 321.8125 C244.86117376 326.7262258 243.16070121 331.70735402 241.51953125 336.78125 C240.6875 339.25 240.6875 339.25 239.6875 341.25 C238.62420471 341.25364563 237.56090942 341.25729126 236.46539307 341.26104736 C226.40310829 341.29812524 216.34112594 341.35603672 206.27907181 341.43390274 C201.10709691 341.47326891 195.9352895 341.50551044 190.76318359 341.52099609 C185.7638539 341.53623448 180.76498503 341.57080636 175.76586151 341.61830902 C173.86671727 341.63304912 171.96750722 341.64103674 170.06830597 341.64188385 C155.58925692 341.65482699 143.62929137 342.31010779 132.75 352.9453125 C125.81137036 360.69870547 124.09565223 369.14159833 124.24609375 379.3515625 C125.16601427 387.47617028 129.27508446 395.26529595 135.55004883 400.60302734 C147.27986924 409.64121907 158.68752762 409.1473109 172.9375 409.125 C175.05080597 409.14315388 177.16409086 409.16396493 179.27734375 409.1875 C184.4143318 409.23898819 189.55026831 409.25445609 194.6875 409.25 C192.06714751 414.780545 187.7436774 418.53305439 183.4375 422.8125 C182.53306152 423.71274902 181.62862305 424.61299805 180.69677734 425.54052734 C174.2422675 431.88736657 167.66042616 437.75967352 160.32763672 443.06298828 C158.64264622 444.2824619 156.97939054 445.5280705 155.31640625 446.77734375 C137.96649441 459.65927601 118.71048089 469.92783003 98.3515625 477.1796875 C95.67118883 478.16133043 95.67118883 478.16133043 93.39916992 479.70947266 C90.47627915 481.36999672 87.89539335 482.16281151 84.63671875 482.96875 C82.8894751 483.40525879 82.8894751 483.40525879 81.10693359 483.85058594 C79.25962646 484.2957959 79.25962646 484.2957959 77.375 484.75 C76.10479004 485.05969727 74.83458008 485.36939453 73.52587891 485.68847656 C64.61904961 487.83631956 55.75759573 489.91604404 46.6875 491.25 C45.38135742 491.45085205 45.38135742 491.45085205 44.04882812 491.65576172 C-3.97226733 498.82345041 -51.7629016 492.38994499 -96.625 473.9375 C-97.34212158 473.64262695 -98.05924316 473.34775391 -98.7980957 473.04394531 C-105.81523087 470.11335522 -112.56014689 466.74289457 -119.3125 463.25 C-120.25351563 462.79496094 -121.19453125 462.33992188 -122.1640625 461.87109375 C-133.46136512 456.05424438 -144.23826422 448.96960671 -154.3125 441.25 C-155.37974433 440.44990152 -156.44747794 439.65045541 -157.515625 438.8515625 C-171.54569886 428.29017094 -171.54569886 428.29017094 -177.3125 422.25 C-177.3125 421.59 -177.3125 420.93 -177.3125 420.25 C-175.62229736 420.22812622 -175.62229736 420.22812622 -173.89794922 420.20581055 C-148.13661787 419.84634609 -123.25890331 419.34857005 -98.3125 412.25 C-96.94689941 411.87053223 -96.94689941 411.87053223 -95.55371094 411.48339844 C-82.89690468 407.9596051 -70.52448359 404.09175561 -58.3125 399.25 C-56.00036467 398.37403684 -53.68788117 397.49899196 -51.375 396.625 C-47.10214409 395.00327003 -42.93466302 393.21010144 -38.7668457 391.33984375 C-36.2837434 390.23723073 -33.78694754 389.17274103 -31.28515625 388.11328125 C-6.77460219 377.59576379 16.89799605 365.28464296 40.6875 353.25 C36.0832117 354.68549877 31.75249576 356.51196203 27.39453125 358.55859375 C25.95773439 359.22522265 24.52079829 359.89155152 23.08374023 360.55761719 C22.33567108 360.90546265 21.58760193 361.25330811 20.81686401 361.61169434 C5.84583811 368.56329545 -9.21862592 375.10879793 -24.57641602 381.16577148 C-26.310218 381.85282552 -28.04040089 382.5491443 -29.76538086 383.25805664 C-36.9859336 386.21838741 -44.34653733 388.72699685 -51.75 391.1875 C-52.40736145 391.40654999 -53.0647229 391.62559998 -53.74200439 391.85128784 C-61.83425062 394.54006372 -69.93958393 397.1362131 -78.1875 399.3125 C-78.90993896 399.50384521 -79.63237793 399.69519043 -80.37670898 399.89233398 C-83.74552404 400.74204938 -87.05953845 401.37198096 -90.5078125 401.74609375 C-93.90879022 402.19653125 -96.19398839 402.95143996 -99.3125 404.25 C-101.85602169 404.80174006 -104.37640679 405.30266894 -106.9375 405.75 C-107.91009766 405.92595703 -107.91009766 405.92595703 -108.90234375 406.10546875 C-110.24087327 406.34718379 -111.58018369 406.58461457 -112.92024231 406.81770325 C-114.5400178 407.11040737 -116.15632551 407.42287051 -117.7688446 407.7532196 C-124.27548921 409.04965194 -130.47973308 409.55733726 -137.10546875 409.55078125 C-138.09517166 409.55506638 -139.08487457 409.5593515 -140.10456848 409.56376648 C-142.18436932 409.56946765 -144.26419008 409.57004147 -146.34399414 409.56567383 C-149.47513025 409.56252501 -152.60530904 409.58598869 -155.73632812 409.61132812 C-167.32164575 409.64704098 -178.02161067 408.91198003 -189.3125 406.25 C-190.67568359 406.0497522 -190.67568359 406.0497522 -192.06640625 405.84545898 C-194.74559192 405.13518357 -195.46683514 404.39709279 -197.07421875 402.1796875 C-197.78505615 401.21808716 -197.78505615 401.21808716 -198.51025391 400.23706055 C-199.00187012 399.54008057 -199.49348633 398.84310059 -200 398.125 C-200.78383057 397.04182495 -200.78383057 397.04182495 -201.58349609 395.93676758 C-203.17689057 393.7194186 -204.74664943 391.48685785 -206.3125 389.25 C-206.76351074 388.61658691 -207.21452148 387.98317383 -207.67919922 387.33056641 C-214.45863213 377.78065503 -219.99386867 367.72673581 -225.27734375 357.28515625 C-226.12517123 355.61829542 -226.99678149 353.96355079 -227.875 352.3125 C-231.43112268 345.5558669 -233.83292686 338.45770329 -236.3125 331.25 C-237.18545253 328.83259299 -238.06041886 326.41591213 -238.9375 324 C-240.71002071 319.05589348 -242.31554034 314.09962947 -243.734375 309.04296875 C-244.1628165 307.2476871 -244.1628165 307.2476871 -245.3125 306.25 C-254.61458364 252.93577202 -252.79627857 195.29179066 -227.38769531 146.32373047 C-226.06854665 143.77948689 -224.78253141 141.21912541 -223.4921875 138.66015625 C-218.29894655 128.44999571 -213.06427952 118.52660463 -206.3125 109.25 C-205.65765625 108.32445312 -205.0028125 107.39890625 -204.328125 106.4453125 C-202.35658756 103.68668841 -200.347541 100.96204474 -198.3125 98.25 C-197.73371094 97.47527344 -197.15492188 96.70054687 -196.55859375 95.90234375 C-174.67796552 67.59457634 -143.09472674 38.49045338 -109.3125 25.25 C-107.5982706 24.36550144 -105.89042368 23.46857455 -104.1875 22.5625 C-72.32632799 6.51420031 -35.37005797 0.02566736 0 0 Z " fill="#092D56" transform="translate(315.3125,32.75)"/>
<path d="M0 0 C1.85625 0.0309375 1.85625 0.0309375 3.75 0.0625 C2.4972296 10.02139194 -0.44317571 19.40172991 -4.3125 28.63671875 C-5.62616489 32.03582666 -6.54258818 35.50297037 -7.44140625 39.03125 C-8.36779949 42.5041058 -9.40046421 45.93770484 -10.44067383 49.37792969 C-11.23316127 52.00664518 -12.01118678 54.63921693 -12.78515625 57.2734375 C-13.29427083 58.99479167 -13.80338542 60.71614583 -14.3125 62.4375 C-14.56837891 63.31277344 -14.82425781 64.18804687 -15.08789062 65.08984375 C-15.33861328 65.93417969 -15.58933594 66.77851563 -15.84765625 67.6484375 C-16.06945557 68.4017334 -16.29125488 69.1550293 -16.51977539 69.93115234 C-17.25990248 72.09140291 -18.18303739 74.0462062 -19.25 76.0625 C-20.24 76.0625 -21.23 76.0625 -22.25 76.0625 C-23.7578125 74.4453125 -23.7578125 74.4453125 -25.375 72.1875 C-28.10069374 68.53588058 -30.91958891 65.04065884 -33.9375 61.625 C-34.66324219 60.80128906 -35.38898438 59.97757813 -36.13671875 59.12890625 C-38.11940137 57.19020181 -39.70827358 56.11246825 -42.25 55.0625 C-48.93737142 60.41757111 -55.38764567 65.92424864 -61.6953125 71.72265625 C-64.50231491 74.29359576 -67.35985402 76.79821172 -70.234375 79.29296875 C-72.53607764 81.31364956 -74.79764379 83.37562618 -77.0625 85.4375 C-80.52530082 88.56672827 -84.05679003 91.56750349 -87.6875 94.5 C-92.52305917 98.41352458 -97.12987048 102.52753599 -101.7109375 106.734375 C-106.22256119 110.87118687 -110.84985491 114.86860823 -115.50390625 118.84375 C-121.73925673 124.1701871 -127.93147878 129.52661109 -134.0078125 135.03515625 C-136.79075255 137.55143828 -139.59844145 140.03610753 -142.44140625 142.484375 C-143.61784875 143.51090366 -144.7732439 144.56224122 -145.90234375 145.640625 C-149.60788396 149.0727284 -149.60788396 149.0727284 -152.45703125 149.02734375 C-156.47910771 147.63789916 -159.42140751 145.23092439 -162.75 142.625 C-163.45342529 142.08584961 -164.15685059 141.54669922 -164.8815918 140.99121094 C-167.01095435 139.35660708 -169.13110587 137.71064053 -171.25 136.0625 C-172.433032 135.14901162 -173.61658699 134.23619994 -174.80078125 133.32421875 C-175.62074585 132.69253784 -175.62074585 132.69253784 -176.45727539 132.0480957 C-179.05280854 130.050226 -181.65061802 128.05535952 -184.25 126.0625 C-185.27609375 125.27101563 -186.3021875 124.47953125 -187.359375 123.6640625 C-188.33390625 122.92929688 -189.3084375 122.19453125 -190.3125 121.4375 C-191.16972656 120.78523438 -192.02695312 120.13296875 -192.91015625 119.4609375 C-195.36793556 117.72048678 -195.36793556 117.72048678 -199.25 118.0625 C-201.21902307 119.07814111 -201.21902307 119.07814111 -203.12109375 120.5546875 C-203.85360352 121.08989014 -204.58611328 121.62509277 -205.34082031 122.17651367 C-206.11522461 122.75763916 -206.88962891 123.33876465 -207.6875 123.9375 C-208.49155273 124.52958252 -209.29560547 125.12166504 -210.12402344 125.73168945 C-215.85587577 129.96889675 -221.50397941 134.31107129 -227.1328125 138.68359375 C-230.89672958 141.55605679 -234.73972358 144.30018851 -238.60302734 147.03637695 C-249.64651448 154.87179292 -260.49800696 162.97753983 -271.3125 171.125 C-282.86338131 179.82151988 -294.63985944 188.20808179 -306.41015625 196.60375977 C-315.78767095 203.29592015 -325.05141991 210.12744486 -334.25 217.0625 C-334.91 216.7325 -335.57 216.4025 -336.25 216.0625 C-327.97878148 208.14969609 -319.76162374 200.31492064 -310.7890625 193.19921875 C-306.94817089 189.96696073 -303.52224265 186.35239391 -300.015625 182.765625 C-296.45493697 179.2854045 -292.6361338 176.21818396 -288.74609375 173.1171875 C-285.94505189 170.81147855 -283.43403164 168.33794501 -280.9140625 165.734375 C-278.52335346 163.33244197 -275.96597561 161.14395686 -273.40234375 158.9296875 C-266.72220485 153.13457607 -260.22377247 147.13205477 -253.71191406 141.14941406 C-249.77244476 137.5329762 -245.80090849 133.95382948 -241.8203125 130.3828125 C-238.905715 127.75170168 -236.01464406 125.09593641 -233.125 122.4375 C-229.23331657 118.85915859 -225.30318931 115.33418387 -221.30859375 111.87109375 C-218.7604335 109.6323875 -216.25589407 107.34839788 -213.75 105.0625 C-212.81929688 104.21945313 -211.88859375 103.37640625 -210.9296875 102.5078125 C-209.25284259 100.97763041 -207.58903148 99.43289947 -205.9453125 97.8671875 C-204.92050781 96.91199219 -204.92050781 96.91199219 -203.875 95.9375 C-203.28976562 95.37804687 -202.70453125 94.81859375 -202.1015625 94.2421875 C-199.56640379 92.6269598 -198.21327835 92.58784314 -195.25 93.0625 C-192.6640625 94.64453125 -192.6640625 94.64453125 -189.875 96.875 C-188.81593591 97.70418842 -187.75599846 98.53226225 -186.6953125 99.359375 C-186.1374707 99.79958984 -185.57962891 100.23980469 -185.00488281 100.69335938 C-181.96511049 103.06495692 -178.85918873 105.34559092 -175.75 107.625 C-175.1199707 108.08753174 -174.48994141 108.55006348 -173.84082031 109.02661133 C-166.52515709 114.36636706 -159.04648871 119.44652835 -151.25 124.0625 C-150.92 123.0725 -150.59 122.0825 -150.25 121.0625 C-148.859375 119.66015625 -148.859375 119.66015625 -147 118.125 C-143.19984273 114.90371973 -139.5234627 111.57775397 -135.875 108.1875 C-132.04610994 104.63746315 -128.20420596 101.10637782 -124.3125 97.625 C-120.20328231 93.94480341 -116.15934813 90.19919947 -112.125 86.4375 C-108.56250125 83.11627101 -105.00481845 79.80248538 -101.3125 76.625 C-97.35489408 73.21444976 -93.56015031 69.63558664 -89.75 66.0625 C-85.34858636 61.93520433 -80.93378423 57.8494582 -76.35546875 53.91796875 C-72.74500596 50.73620655 -69.23928069 47.43855825 -65.72802734 44.14794922 C-63.31571136 41.90114874 -60.99961355 39.8955757 -58.25 38.0625 C-59.84730713 33.6383796 -63.22678043 31.26006591 -66.75 28.375 C-67.34425781 27.87677734 -67.93851562 27.37855469 -68.55078125 26.86523438 C-71.71869253 24.19624855 -71.71869253 24.19624855 -75.25 22.0625 C-75.25 21.0725 -75.25 20.0825 -75.25 19.0625 C-62.16238198 14.84542044 -49.06705994 11.19427103 -35.64453125 8.20385742 C-27.57189065 6.39835968 -19.61245232 4.32990093 -11.6640625 2.04296875 C-7.60656251 0.87771418 -4.22714317 -0.07045239 0 0 Z " fill="#0C9A59" transform="translate(514.25,97.9375)"/>
<path d="M0 0 C18.48 0 36.96 0 56 0 C57.5861724 1.5861724 57.12598542 3.20305121 57.12698364 5.40344238 C57.12980347 6.3541713 57.13262329 7.30490021 57.13552856 8.28443909 C57.13350433 9.33590622 57.1314801 10.38737335 57.12939453 11.47070312 C57.13114685 12.57139633 57.13289917 13.67208954 57.13470459 14.80613708 C57.13912568 18.46452384 57.13618421 22.12286271 57.1328125 25.78125 C57.13348547 28.31091318 57.13445543 30.8405763 57.13571167 33.37023926 C57.13718899 38.67993849 57.13512758 43.98962037 57.13037109 49.29931641 C57.12492851 55.44605958 57.12669118 61.59276959 57.1321975 67.73951197 C57.1372744 73.64217564 57.13674706 79.54482896 57.13381577 85.44749451 C57.13314624 87.96422836 57.1339758 90.48096305 57.13629532 92.99769592 C57.13882033 96.50825275 57.13498338 100.0187449 57.12939453 103.52929688 C57.13141876 104.58076401 57.13344299 105.63223114 57.13552856 106.71556091 C57.13270874 107.66628983 57.12988892 108.61701874 57.12698364 109.59655762 C57.12660662 110.42763786 57.12622959 111.25871811 57.12584114 112.1149826 C57 114 57 114 56 115 C53.79981325 115.42948851 51.58893732 115.8044494 49.375 116.15625 C48.71290527 116.2634436 48.05081055 116.37063721 47.36865234 116.4810791 C44.52601982 116.94117288 41.68189527 117.39174066 38.83789062 117.84326172 C36.76638993 118.17350783 34.69569619 118.50850283 32.625 118.84375 C31.37976563 119.04162109 30.13453125 119.23949219 28.8515625 119.44335938 C26.1110669 119.70275522 26.1110669 119.70275522 25 121 C23.36086721 121.32723159 21.71301361 121.61110301 20.0625 121.875 C15.284562 122.69620809 10.78783236 123.88444458 6.19140625 125.4140625 C4 126 4 126 0 126 C0 84.42 0 42.84 0 0 Z " fill="#06315C" transform="translate(412,217)"/>
<path d="M0 0 C0.96706375 -0.00058411 1.9341275 -0.00116821 2.93049622 -0.00177002 C6.09060003 0.00099125 9.24973129 0.03199022 12.40966797 0.06347656 C14.61497482 0.07094591 16.82028836 0.07663556 19.02560425 0.08062744 C24.80263913 0.09582901 30.57926555 0.13506353 36.35614014 0.17944336 C42.26194739 0.22051451 48.16782127 0.23866369 54.07373047 0.25878906 C65.64161731 0.30156316 77.20920229 0.36974782 88.77685547 0.45410156 C88.05909198 5.19433998 86.80012176 9.35256302 84.96435547 13.76660156 C84.71621094 14.37955078 84.46806641 14.9925 84.21240234 15.62402344 C83.41644956 17.57441157 82.5994205 19.51479516 81.77685547 21.45410156 C81.48343262 22.15913818 81.19000977 22.8641748 80.88769531 23.59057617 C78.37282062 29.47088795 75.33432755 34.92294639 72.02685547 40.39160156 C71.50115967 41.26534424 70.97546387 42.13908691 70.43383789 43.03930664 C66.43056017 49.59607264 62.23798633 55.9929707 56.77685547 61.45410156 C54.77482067 61.56925984 52.76869703 61.613789 50.76342773 61.63110352 C48.82990196 61.65035637 48.82990196 61.65035637 46.85731506 61.66999817 C45.43596786 61.67817062 44.0146163 61.68561338 42.59326172 61.69238281 C41.52113591 61.6984961 41.52113591 61.6984961 40.427351 61.70473289 C36.63573366 61.72563076 32.84415278 61.73990966 29.05249023 61.74926758 C25.15551569 61.76026942 21.25912212 61.79458481 17.36235142 61.83443928 C14.35179169 61.86075046 11.34136639 61.86897272 8.33070183 61.87254906 C6.89593573 61.87738699 5.4611745 61.88892031 4.02652168 61.90758705 C-6.82301698 62.03984377 -16.36530149 60.99837594 -24.62158203 53.36816406 C-32.43396768 44.03141048 -34.2483741 34.25616286 -33.22314453 22.45410156 C-31.15989732 15.22309499 -26.37324304 8.76764692 -20.22314453 4.45410156 C-13.41220567 1.06452677 -7.55514245 -0.1221116 0 0 Z " fill="#0A2A53" transform="translate(476.22314453125,377.5458984375)"/>
<path d="M0 0 C18.15 0 36.3 0 55 0 C55 28.71 55 57.42 55 87 C50.35597759 88.99029532 46.13641401 90.67332727 41.359375 92.12109375 C39.50505859 92.68860352 39.50505859 92.68860352 37.61328125 93.26757812 C36.32563179 93.65791828 35.03787078 94.04789067 33.75 94.4375 C25.95913293 96.80187266 18.23131478 99.15835151 10.66894531 102.18774414 C8 103 8 103 0 104 C0 69.68 0 35.36 0 0 Z " fill="#062D57" transform="translate(326,266)"/>
<path d="M0 0 C4.28306103 1.50880559 6.14935594 4.65498761 8.5 8.3125 C8.92434326 8.96186523 9.34868652 9.61123047 9.78588867 10.28027344 C13.46804795 16.0008303 16.91696958 21.85586175 20.3125 27.75 C20.80363281 28.59989502 21.29476562 29.44979004 21.80078125 30.32543945 C28.31551706 41.80921034 32.92688014 53.69123717 37.02734375 66.1953125 C38.00146728 69.14417291 38.00146728 69.14417291 39.5625 72.4375 C41.32816265 76.81327266 42.27478921 81.20847123 43.25390625 85.81640625 C43.92020024 88.95362499 43.92020024 88.95362499 44.9921875 91.6875 C46.46426004 96.52593998 46.96113519 101.42612658 47.5625 106.4375 C47.81349807 108.45706906 48.06479303 110.47660124 48.31640625 112.49609375 C48.43306641 113.4598291 48.54972656 114.42356445 48.66992188 115.41650391 C48.92397993 117.40499679 49.23349229 119.38646114 49.56640625 121.36328125 C52.25833834 143.94155851 51.24086927 172.2773922 44 194 C31.84271885 194.63003184 20.00078319 192.73483063 8 191 C8.58331844 187.87376709 9.29021632 184.89598629 10.3046875 181.8828125 C20.09350772 152.24765138 22.19580575 119.87127519 17 89 C16.80664062 87.81736572 16.80664062 87.81736572 16.609375 86.61083984 C13.12952647 65.94521157 6.47380753 45.18925323 -3.76953125 26.828125 C-6.57523044 20.37947036 -4.51551962 14.41955783 -2.5 8.0625 C-2.26152344 7.28326172 -2.02304687 6.50402344 -1.77734375 5.70117188 C-1.19357822 3.79809624 -0.59800024 1.89865078 0 0 Z " fill="#0A8F54" transform="translate(523,139)"/>
<path d="M0 0 C18.48 0 36.96 0 56 0 C56 25.41 56 50.82 56 77 C50.72886539 79.25905769 47.13655313 80.54938637 41.6875 81.5 C41.00308838 81.62036621 40.31867676 81.74073242 39.61352539 81.86474609 C38.15773153 82.11908639 36.70124598 82.36949504 35.24414062 82.61621094 C32.98784517 83.0020787 30.73622844 83.40938325 28.484375 83.8203125 C26.96889001 84.0893316 25.45326787 84.35757936 23.9375 84.625 C22.9323938 84.8096582 22.9323938 84.8096582 21.90698242 84.99804688 C14.56363474 86.25388335 7.57122925 86.49525138 0 87 C0 58.29 0 29.58 0 0 Z " fill="#0B2C56" transform="translate(239,302)"/>
<path d="M0 0 C3.375 1.6875 3.375 1.6875 6 4 C6.78375 4.680625 7.5675 5.36125 8.375 6.0625 C10.90029334 10.62745335 10.83884388 14.90858236 10 20 C8.27791919 24.05971391 5.8546172 26.38388062 2.3125 28.9375 C-2.27512015 30.4090008 -6.24768305 31.04390372 -11 30 C-15.19288954 27.42662262 -18.42702236 24.71893292 -20 20 C-20.3866241 15.19693912 -20.58824837 10.62633372 -18.9375 6.0625 C-13.47810628 0.25088733 -7.7685129 -1.2712112 0 0 Z " fill="#F6F7F9" transform="translate(479,393)"/>
<path d="M0 0 C1.93340465 0.00747479 3.86681695 0.01316186 5.80023193 0.01715088 C10.85062146 0.03230985 15.90053942 0.07150601 20.95074463 0.1159668 C26.11944198 0.15713134 31.28821668 0.17520683 36.45703125 0.1953125 C46.57051791 0.23801109 56.68365701 0.30614224 66.796875 0.390625 C66.796875 1.050625 66.796875 1.710625 66.796875 2.390625 C70.096875 2.390625 73.396875 2.390625 76.796875 2.390625 C76.796875 3.050625 76.796875 3.710625 76.796875 4.390625 C74.96976486 4.39609344 74.96976486 4.39609344 73.10574341 4.40167236 C61.60067445 4.43868755 50.09587154 4.49653171 38.59100533 4.57452774 C32.67687022 4.61395911 26.76288304 4.64616903 20.84863281 4.66162109 C15.13611446 4.67681602 9.42400292 4.71131253 3.71166611 4.75893402 C1.53733744 4.77371848 -0.63704931 4.78166432 -2.81142807 4.78250885 C-5.86804829 4.78488905 -8.9235538 4.8120541 -11.97998047 4.84472656 C-12.86975082 4.8396962 -13.75952118 4.83466583 -14.67625427 4.82948303 C-22.11142045 4.95164934 -28.6741181 6.9011292 -34.7890625 11.21484375 C-43.09746817 19.86792127 -44.83586291 27.5096965 -45.203125 39.390625 C-45.533125 39.390625 -45.863125 39.390625 -46.203125 39.390625 C-46.533125 36.090625 -46.863125 32.790625 -47.203125 29.390625 C-47.533125 33.680625 -47.863125 37.970625 -48.203125 42.390625 C-48.533125 42.390625 -48.863125 42.390625 -49.203125 42.390625 C-49.79687704 30.02079086 -49.09940322 21.55282365 -40.703125 11.953125 C-29.19276689 -0.32590428 -15.79893591 -0.18078403 0 0 Z " fill="#DBDFE6" transform="translate(488.203125,373.609375)"/>
<path d="M0 0 C18.48 0 36.96 0 56 0 C57.5861724 1.5861724 57.12598542 3.20305121 57.12698364 5.40344238 C57.12980347 6.3541713 57.13262329 7.30490021 57.13552856 8.28443909 C57.13350433 9.33590622 57.1314801 10.38737335 57.12939453 11.47070312 C57.13114685 12.57139633 57.13289917 13.67208954 57.13470459 14.80613708 C57.13912568 18.46452384 57.13618421 22.12286271 57.1328125 25.78125 C57.13348547 28.31091318 57.13445543 30.8405763 57.13571167 33.37023926 C57.13718899 38.67993849 57.13512758 43.98962037 57.13037109 49.29931641 C57.12492851 55.44605958 57.12669118 61.59276959 57.1321975 67.73951197 C57.1372744 73.64217564 57.13674706 79.54482896 57.13381577 85.44749451 C57.13314624 87.96422836 57.1339758 90.48096305 57.13629532 92.99769592 C57.13882033 96.50825275 57.13498338 100.0187449 57.12939453 103.52929688 C57.13141876 104.58076401 57.13344299 105.63223114 57.13552856 106.71556091 C57.13270874 107.66628983 57.12988892 108.61701874 57.12698364 109.59655762 C57.12660662 110.42763786 57.12622959 111.25871811 57.12584114 112.1149826 C57 114 57 114 56 115 C53.29291706 115.5982831 50.60149718 116.13258914 47.875 116.625 C47.12734375 116.77195312 46.3796875 116.91890625 45.609375 117.0703125 C40.74651622 117.95138796 36.85132406 117.96511752 32 117 C36 115 36 115 55 114 C55 76.71 55 39.42 55 1 C37.18 1 19.36 1 1 1 C1 42.25 1 83.5 1 126 C0.67 126 0.34 126 0 126 C0 84.42 0 42.84 0 0 Z " fill="#607893" transform="translate(412,217)"/>
<path d="M0 0 C18.15 0 36.3 0 55 0 C55 28.71 55 57.42 55 87 C54.67 87 54.34 87 54 87 C54 58.95 54 30.9 54 2 C28.755 2.495 28.755 2.495 3 3 C2.67 36.33 2.34 69.66 2 104 C1.34 104 0.68 104 0 104 C0 69.68 0 35.36 0 0 Z " fill="#1B375F" transform="translate(326,266)"/>
<path d="M0 0 C1.38553668 0.09572418 2.77473083 0.1456258 4.16351318 0.15821838 C4.98518478 0.1680072 5.80685638 0.17779602 6.65342712 0.18788147 C7.54606766 0.19363693 8.43870819 0.1993924 9.35839844 0.20532227 C10.30507889 0.21522186 11.25175934 0.22512146 12.22712708 0.23532104 C15.35451766 0.26689454 18.48192343 0.29167714 21.609375 0.31640625 C23.77842604 0.33697935 25.94747311 0.35797592 28.11651611 0.37937927 C33.82436908 0.4345631 39.53225801 0.48398869 45.24017334 0.53222656 C51.06509602 0.58246848 56.8899665 0.63814051 62.71484375 0.69335938 C74.14318457 0.80089585 85.57157072 0.90235088 97 1 C97 1.33 97 1.66 97 2 C95.17288986 2.00546844 95.17288986 2.00546844 93.30886841 2.01104736 C81.80379945 2.04806255 70.29899654 2.10590671 58.79413033 2.18390274 C52.87999522 2.22333411 46.96600804 2.25554403 41.05175781 2.27099609 C35.33923946 2.28619102 29.62712792 2.32068753 23.91479111 2.36830902 C21.74046244 2.38309348 19.56607569 2.39103932 17.39169693 2.39188385 C14.33507671 2.39426405 11.2795712 2.4214291 8.22314453 2.45410156 C7.33337418 2.4490712 6.44360382 2.44404083 5.52687073 2.43885803 C-1.90829545 2.56102434 -8.4709931 4.5105042 -14.5859375 8.82421875 C-22.89434317 17.47729627 -24.63273791 25.1190715 -25 37 C-25.33 37 -25.66 37 -26 37 C-26.33 33.7 -26.66 30.4 -27 27 C-27.33 31.29 -27.66 35.58 -28 40 C-28.33 40 -28.66 40 -29 40 C-29.59375204 27.63016586 -28.89627822 19.16219865 -20.5 9.5625 C-16.72633553 5.53682711 -13.19724256 2.23956942 -8 0.25 C-7.34 -0.01296875 -6.68 -0.2759375 -6 -0.546875 C-3.6170487 -1.0867624 -2.35197155 -0.59284402 0 0 Z " fill="#96A4B6" transform="translate(468,376)"/>
<path d="M0 0 C0.33 0 0.66 0 1 0 C1.02578125 0.83402344 1.0515625 1.66804688 1.078125 2.52734375 C1.44907294 9.88728813 2.33074404 15.59354989 6 22 C6.61681641 23.15822266 6.61681641 23.15822266 7.24609375 24.33984375 C11.07773477 30.86340254 16.45899602 35.23185384 23.74090576 37.55552673 C26.6880958 38.13538178 29.50855011 38.16519055 32.51269531 38.20532227 C33.47917496 38.22017166 33.47917496 38.22017166 34.46517944 38.23532104 C36.58612445 38.26680429 38.70709181 38.29164103 40.828125 38.31640625 C42.30215015 38.33698718 43.77616955 38.35798395 45.25018311 38.37937927 C49.12332491 38.4344824 52.99651895 38.48394334 56.86975098 38.53222656 C60.82467274 38.58252763 64.77951898 38.63816871 68.734375 38.69335938 C76.48951932 38.80079705 84.24472658 38.90227374 92 39 C92 39.33 92 39.66 92 40 C90.81062836 40.0154612 90.81062836 40.0154612 89.597229 40.03123474 C82.12260033 40.12923644 74.64805368 40.23175469 67.17355728 40.33933926 C63.33090281 40.39448957 59.48824062 40.4478968 55.64550781 40.49731445 C51.93665809 40.5450746 48.22789881 40.59742136 44.51915741 40.65294075 C43.1046143 40.67331159 41.69004644 40.69203325 40.27545929 40.70907402 C38.29328191 40.73323472 36.31118596 40.76381723 34.32910156 40.79467773 C32.63699554 40.81799416 32.63699554 40.81799416 30.91070557 40.84178162 C28.08833125 40.89995881 28.08833125 40.89995881 25.77532959 41.57118225 C21.98387814 42.48697934 18.31171321 39.59501233 15.046875 37.875 C7.92904628 33.49479771 2.10171342 27.27730301 -0.58984375 19.23828125 C-1.16107373 16.12099767 -1.13166015 13.10439933 -1.125 9.9375 C-1.12757813 8.70902344 -1.13015625 7.48054688 -1.1328125 6.21484375 C-1 3 -1 3 0 0 Z " fill="#DDE2E8" transform="translate(441,400)"/>
<path d="M0 0 C-12.02327866 6.47791607 -24.18870758 12.67447099 -36.38909912 18.81063843 C-38.13155954 19.68781574 -39.87297416 20.56707353 -41.61334229 21.44839478 C-44.09341869 22.70338916 -46.5773672 23.95036701 -49.0625 25.1953125 C-49.81804169 25.5792366 -50.57358337 25.96316071 -51.35202026 26.35871887 C-56.6570274 29 -56.6570274 29 -60 29 C-60 28.34 -60 27.68 -60 27 C-61.32 26.67 -62.64 26.34 -64 26 C-63.39567139 25.75056641 -62.79134277 25.50113281 -62.16870117 25.24414062 C-50.88672368 20.56980388 -39.66419742 15.8106929 -28.5859375 10.671875 C-27.79506241 10.30578125 -27.00418732 9.9396875 -26.18934631 9.5625 C-22.25074067 7.73698515 -18.31854062 5.89901679 -14.39331055 4.04492188 C-12.94073749 3.36817818 -11.48802594 2.69173163 -10.03515625 2.015625 C-9.36749237 1.69535339 -8.69982849 1.37508179 -8.01193237 1.04510498 C-3.34002348 -1.11334116 -3.34002348 -1.11334116 0 0 Z " fill="#D2D9E1" transform="translate(357,386)"/>
<path d="M0 0 C0.495 0.99 0.495 0.99 1 2 C0.22265625 3.7265625 0.22265625 3.7265625 -0.9375 5.625 C-1.618125 6.73875 -2.29875 7.8525 -3 9 C-2.34 9.33 -1.68 9.66 -1 10 C-1.88300781 10.6290625 -2.76601562 11.258125 -3.67578125 11.90625 C-13.86044674 19.16756569 -24.02368234 26.45344452 -34 34 C-34.66 33.67 -35.32 33.34 -36 33 C-27.67753334 25.03816868 -19.40954976 17.13607619 -10.3828125 9.97265625 C-6.66939327 6.89843214 -3.31929843 3.49049433 0 0 Z " fill="#1B8A5E" transform="translate(214,281)"/>
<path d="M0 0 C1.7760404 0.00502714 3.55208218 0.00958789 5.328125 0.01367188 C9.63545148 0.02457643 13.94271005 0.04177348 18.25 0.0625 C18.25 0.3925 18.25 0.7225 18.25 1.0625 C16.94349487 1.092229 16.94349487 1.092229 15.6105957 1.12255859 C12.31332459 1.20164242 9.01642297 1.28835323 5.71948242 1.37988281 C4.30484477 1.41767053 2.89012728 1.45260066 1.4753418 1.484375 C-6.70620574 1.67025325 -14.66472622 2.19341888 -22.75073242 3.56787109 C-27.33510364 4.32390985 -31.93755951 4.76293812 -36.5625 5.1875 C-37.43841797 5.27386719 -38.31433594 5.36023437 -39.21679688 5.44921875 C-44.42057569 5.93889473 -49.52360406 6.14748205 -54.75 6.0625 C-54.75 5.7325 -54.75 5.4025 -54.75 5.0625 C-51.16829337 4.4074319 -47.58438664 3.76522728 -44 3.125 C-43.00355469 2.94259766 -42.00710938 2.76019531 -40.98046875 2.57226562 C-27.28645179 0.14268197 -13.86069599 -0.06873287 0 0 Z " fill="#335B7F" transform="translate(316.75,32.9375)"/>
<path d="M0 0 C7.51962983 3.69483046 13.6485952 8.57974251 20 14 C21.22784773 15.02241936 22.45671471 16.04361878 23.6875 17.0625 C24.450625 17.701875 25.21375 18.34125 26 19 C25.01 19.33 24.02 19.66 23 20 C22.58484131 19.54496094 22.16968262 19.08992188 21.74194336 18.62109375 C19.92509724 16.93029372 18.38439987 16.07204259 16.12890625 15.0625 C15.38962891 14.72476563 14.65035156 14.38703125 13.88867188 14.0390625 C12.7372168 13.52472656 12.7372168 13.52472656 11.5625 13 C2.77682781 9.0557151 2.77682781 9.0557151 -1 6 C-2.64797236 5.28837557 -4.31165408 4.60968047 -6 4 C-2.94736336 3.01879536 -1.05263664 3.01879536 2 4 C1.34 2.68 0.68 1.36 0 0 Z " fill="#214970" transform="translate(444,71)"/>
<path d="M0 0 C0.33 0 0.66 0 1 0 C1 22.77 1 45.54 1 69 C-0.65 69 -2.3 69 -4 69 C-3.01 68.01 -3.01 68.01 -2 67 C-1.52713829 63.92837313 -1.52713829 63.92837313 -1.375 60.3125 C-1.30023438 59.11238281 -1.22546875 57.91226563 -1.1484375 56.67578125 C-0.98944201 52.84722224 -0.9943838 49.02688352 -1.0078125 45.1953125 C-1.03188783 35.97847408 -0.76832622 26.77473329 -0.5 17.5625 C-0.45163073 15.8483127 -0.40345259 14.13412 -0.35546875 12.41992188 C-0.23917393 8.27988255 -0.12032245 4.13992415 0 0 Z " fill="#0B2549" transform="translate(294,310)"/>
<path d="M0 0 C-5.48964635 2.91037555 -10.98822757 5.80313486 -16.49414062 8.68261719 C-18.7374086 9.86195019 -20.97118037 11.05724753 -23.203125 12.2578125 C-24.42671206 12.90174764 -25.65064548 13.54502527 -26.875 14.1875 C-28.47988281 15.04408203 -28.47988281 15.04408203 -30.1171875 15.91796875 C-33.29773263 17.11175059 -34.80746419 17.01901973 -38 16 C-35.30636149 13.30636149 -32.11084818 12.05126342 -28.69140625 10.48828125 C-27.96888168 10.1557988 -27.24635712 9.82331635 -26.50193787 9.48075867 C-24.97399642 8.77992172 -23.44491631 8.08156272 -21.91479492 7.38549805 C-19.57046712 6.3161342 -17.23350216 5.23171287 -14.89648438 4.14648438 C-13.41188611 3.46781346 -11.92687343 2.79004818 -10.44140625 2.11328125 C-9.7413295 1.78628738 -9.04125275 1.45929352 -8.31996155 1.12239075 C-3.34312016 -1.11437339 -3.34312016 -1.11437339 0 0 Z " fill="#CED5DF" transform="translate(357,386)"/>
<path d="M0 0 C23.43 0.33 46.86 0.66 71 1 C71 1.33 71 1.66 71 2 C70.20708557 2.01030746 69.41417114 2.02061493 68.597229 2.03123474 C61.12260033 2.12923644 53.64805368 2.23175469 46.17355728 2.33933926 C42.33090281 2.39448957 38.48824062 2.4478968 34.64550781 2.49731445 C30.93665809 2.5450746 27.22789881 2.59742136 23.51915741 2.65294075 C22.1046143 2.67331159 20.69004644 2.69203325 19.27545929 2.70907402 C17.29328191 2.73323472 15.31118596 2.76381723 13.32910156 2.79467773 C11.63699554 2.81799416 11.63699554 2.81799416 9.91070557 2.84178162 C7.09039865 2.89814312 7.09039865 2.89814312 4.79193115 3.57533264 C3 4 3 4 0 3 C0 2.01 0 1.02 0 0 Z " fill="#C9CFD9" transform="translate(462,438)"/>
<path d="M0 0 C0.3125 2.25390625 0.3125 2.25390625 0 5 C-2.125 7.02734375 -2.125 7.02734375 -5 8.9375 C-5.99644531 9.61683594 -6.99289063 10.29617188 -8.01953125 10.99609375 C-9.49486328 11.98802734 -9.49486328 11.98802734 -11 13 C-12.57078299 14.15549044 -14.13455048 15.32065054 -15.6875 16.5 C-16.65236328 17.22703125 -16.65236328 17.22703125 -17.63671875 17.96875 C-18.31154297 18.47921875 -18.31154297 18.47921875 -19 19 C-19.66 18.67 -20.32 18.34 -21 18 C-18.23253883 15.37142546 -15.46046236 12.74776957 -12.6875 10.125 C-11.90181641 9.37863281 -11.11613281 8.63226563 -10.30664062 7.86328125 C-9.54931641 7.14785156 -8.79199219 6.43242187 -8.01171875 5.6953125 C-7.31522217 5.03547363 -6.61872559 4.37563477 -5.90112305 3.69580078 C-1.75784624 0 -1.75784624 0 0 0 Z " fill="#2C9569" transform="translate(199,296)"/>
<path d="M0 0 C0.95136412 2.56868313 1.14828227 3.6490653 0.0625 6.21875 C-1.18581601 9.48640072 -1.41377055 12.32721414 -1.625 15.8125 C-1.73714844 17.55466797 -1.73714844 17.55466797 -1.8515625 19.33203125 C-1.90054687 20.21246094 -1.94953125 21.09289062 -2 22 C-2.33 22 -2.66 22 -3 22 C-3.33 18.7 -3.66 15.4 -4 12 C-4.33 16.29 -4.66 20.58 -5 25 C-5.33 25 -5.66 25 -6 25 C-6.57142857 8.74603175 -6.57142857 8.74603175 -3 2 C-2.01 1.34 -1.02 0.68 0 0 Z " fill="#BEC9D3" transform="translate(445,391)"/>
<path d="M0 0 C0 3 0 3 -1.8359375 5.17651367 C-2.67382812 5.99869385 -3.51171875 6.82087402 -4.375 7.66796875 C-5.27734375 8.56064453 -6.1796875 9.45332031 -7.109375 10.37304688 C-8.0727573 11.31136157 -9.03630108 12.2495105 -10 13.1875 C-10.96422346 14.13667769 -11.92777392 15.08653956 -12.890625 16.03710938 C-15.25386746 18.36490319 -17.62381482 20.68543133 -20 23 C-20.66 22.67 -21.32 22.34 -22 22 C-15.003724 14.22235297 -7.95768603 6.81332853 0 0 Z " fill="#D2DAE3" transform="translate(181,111)"/>
<path d="M0 0 C-1.50595546 3.76488866 -1.50595546 3.76488866 -3.86328125 4.88671875 C-6.40184346 6.20936999 -7.64741864 7.71746838 -9.4375 9.9375 C-12.05622011 13.03184235 -14.30758653 15.20369074 -18 17 C-18.763125 17.391875 -19.52625 17.78375 -20.3125 18.1875 C-20.869375 18.455625 -21.42625 18.72375 -22 19 C-18.12278103 14.0323132 -13.80037718 10.06395568 -9 6 C-8.34 5.41347656 -7.68 4.82695312 -7 4.22265625 C-6.071875 3.40087891 -6.071875 3.40087891 -5.125 2.5625 C-4.57070313 2.06878906 -4.01640625 1.57507813 -3.4453125 1.06640625 C-2 0 -2 0 0 0 Z " fill="#29A76A" transform="translate(426,165)"/>
<path d="M0 0 C0 0.33 0 0.66 0 1 C-2.99885414 1.50787046 -5.99878126 2.00646625 -9 2.5 C-10.25876953 2.71462891 -10.25876953 2.71462891 -11.54296875 2.93359375 C-16.77182201 3.78480242 -21.70275027 4.14714583 -27 4 C-25.32691919 1.96059103 -24.36474276 1.08324269 -21.7578125 0.48828125 C-20.45457031 0.40126953 -20.45457031 0.40126953 -19.125 0.3125 C-17.68060547 0.21582031 -17.68060547 0.21582031 -16.20703125 0.1171875 C-10.80325308 -0.0802709 -5.40621526 -0.07735443 0 0 Z " fill="#354566" transform="translate(208,438)"/>
<path d="M0 0 C0 0.66 0 1.32 0 2 C-2.09721231 2.89153961 -4.20306339 3.76278219 -6.3125 4.625 C-8.07013672 5.35589844 -8.07013672 5.35589844 -9.86328125 6.1015625 C-10.89839844 6.39804687 -11.93351562 6.69453125 -13 7 C-13.99 6.34 -14.98 5.68 -16 5 C-11.53321948 1.09156705 -5.86504904 -1.93756084 0 0 Z " fill="#CED6DF" transform="translate(468,376)"/>
<path d="M0 0 C1.06669922 0.00322266 2.13339844 0.00644531 3.23242188 0.00976562 C4.88661133 0.02233398 4.88661133 0.02233398 6.57421875 0.03515625 C7.69634766 0.03966797 8.81847656 0.04417969 9.97460938 0.04882812 C12.73703385 0.06058312 15.49934873 0.07701548 18.26171875 0.09765625 C18.26171875 0.42765625 18.26171875 0.75765625 18.26171875 1.09765625 C17.24851562 1.15824219 16.2353125 1.21882813 15.19140625 1.28125 C13.83983361 1.36572329 12.48827166 1.45036782 11.13671875 1.53515625 C10.13898438 1.59413086 10.13898438 1.59413086 9.12109375 1.65429688 C6.0531577 1.8498026 3.07275625 2.13067882 0.04296875 2.66015625 C-3.7920675 3.26342038 -6.91686403 2.69063478 -10.73828125 2.09765625 C-10.73828125 1.76765625 -10.73828125 1.43765625 -10.73828125 1.09765625 C-7.09180065 0.25660845 -3.73877218 -0.01999343 0 0 Z " fill="#21466D" transform="translate(472.73828125,341.90234375)"/>
<path d="M0 0 C0 0.66 0 1.32 0 2 C-1.22976563 2.05607422 -1.22976563 2.05607422 -2.484375 2.11328125 C-3.56203125 2.17902344 -4.6396875 2.24476563 -5.75 2.3125 C-6.81734375 2.37050781 -7.8846875 2.42851562 -8.984375 2.48828125 C-12.25921127 3.04398533 -13.41483664 4.05053255 -16 6 C-18.359375 6.07421875 -18.359375 6.07421875 -20.75 5.6875 C-21.54921875 5.56761719 -22.3484375 5.44773437 -23.171875 5.32421875 C-23.77515625 5.21722656 -24.3784375 5.11023438 -25 5 C-25 4.67 -25 4.34 -25 4 C-16.62893971 1.74788733 -8.68613276 0 0 0 Z " fill="#3A5C7C" transform="translate(461,344)"/>
<path d="M0 0 C0.33 0 0.66 0 1 0 C1.33 5.94 1.66 11.88 2 18 C1.34 18.33 0.68 18.66 0 19 C-1.47899501 16.04200997 -1.13178874 13.3516424 -1.125 10.0625 C-1.12757813 8.81597656 -1.13015625 7.56945312 -1.1328125 6.28515625 C-1 3 -1 3 0 0 Z " fill="#F1F3F6" transform="translate(441,400)"/>
<path d="M0 0 C0 0.33 0 0.66 0 1 C-2.68539415 1.53466228 -5.37232628 2.05294683 -8.0625 2.5625 C-8.81466797 2.71396484 -9.56683594 2.86542969 -10.34179688 3.02148438 C-15.2334119 3.93204475 -19.1155508 3.9794845 -24 3 C-17.00730573 -1.00979672 -7.83808515 -0.1284932 0 0 Z " fill="#37506F" transform="translate(468,331)"/>
<path d="M0 0 C-7.92 3.96 -7.92 3.96 -16 8 C-16.66 7.34 -17.32 6.68 -18 6 C-15.56781941 4.80036357 -13.13029422 3.61515562 -10.6875 2.4375 C-9.99720703 2.09525391 -9.30691406 1.75300781 -8.59570312 1.40039062 C-3.33984375 -1.11328125 -3.33984375 -1.11328125 0 0 Z " fill="#98AABF" transform="translate(357,386)"/>
<path d="M0 0 C1.95582488 2.93373731 3.56224304 5.78216298 5 9 C4.67 9.66 4.34 10.32 4 11 C3.01 11 2.02 11 1 11 C-0.8125 8.875 -0.8125 8.875 -2 6 C-1.1875 2.6875 -1.1875 2.6875 0 0 Z " fill="#CAD2DC" transform="translate(443,415)"/>
<path d="M0 0 C-4.02707549 2.7686144 -8.14923745 4.42138021 -13 5 C-15.24609375 4.546875 -15.24609375 4.546875 -17 4 C-14.92227529 3.13227971 -12.83756823 2.28126381 -10.75 1.4375 C-9.58984375 0.96183594 -8.4296875 0.48617187 -7.234375 -0.00390625 C-4.13733356 -0.95770524 -2.92678299 -1.20983356 0 0 Z " fill="#395E82" transform="translate(235,48)"/>
<path d="M0 0 C-6.62615673 3.09866202 -11.67372525 4.47266289 -19 4 C-15.91433716 1.94289144 -13.63014688 1.21653907 -10.0625 0.3125 C-8.50208984 -0.09548828 -8.50208984 -0.09548828 -6.91015625 -0.51171875 C-4.1294044 -0.97828785 -2.61519118 -0.93894816 0 0 Z " fill="#40688B" transform="translate(262,40)"/>
<path d="M0 0 C-1.32 0.99 -2.64 1.98 -4 3 C-3.67 3.66 -3.34 4.32 -3 5 C-4.65 5.33 -6.3 5.66 -8 6 C-8 5.34 -8 4.68 -8 4 C-9.32 3.67 -10.64 3.34 -12 3 C-10.3789897 2.30314502 -8.75303934 1.61777139 -7.125 0.9375 C-6.22007812 0.55464844 -5.31515625 0.17179687 -4.3828125 -0.22265625 C-2 -1 -2 -1 0 0 Z " fill="#C8D0D9" transform="translate(305,409)"/>
<path d="M0 0 C-1 3 -1 3 -3.8125 4.75 C-6.96403086 5.98589446 -7.96929372 6.28222189 -11 5 C-7.35893156 1.86463551 -4.84781382 0 0 0 Z " fill="#F1F3F6" transform="translate(311,407)"/>
<path d="M0 0 C1.29608947 0.93137592 2.58671632 1.8703566 3.875 2.8125 C4.59429687 3.33457031 5.31359375 3.85664062 6.0546875 4.39453125 C8 6 8 6 10 9 C5.09709716 8.09205503 1.32439556 5.67433193 -2 2 C-1.34 2 -0.68 2 0 2 C0 1.34 0 0.68 0 0 Z " fill="#516789" transform="translate(460,82)"/>
<path d="M0 0 C0.66 0.33 1.32 0.66 2 1 C-0.31 3.64 -2.62 6.28 -5 9 C-5.99 8.67 -6.98 8.34 -8 8 C-5.36 5.36 -2.72 2.72 0 0 Z " fill="#193A60" transform="translate(456,382)"/>
<path d="M0 0 C0.66 0.66 1.32 1.32 2 2 C-0.97 4.31 -3.94 6.62 -7 9 C-7.66 8.67 -8.32 8.34 -9 8 C-6.03 5.36 -3.06 2.72 0 0 Z " fill="#51A37B" transform="translate(187,306)"/>
<path d="M0 0 C0.66 0.33 1.32 0.66 2 1 C1.34 1.66 0.68 2.32 0 3 C-0.99 3 -1.98 3 -3 3 C-3 3.66 -3 4.32 -3 5 C-5.31 5.33 -7.62 5.66 -10 6 C-7.31100548 2.67830089 -3.94687492 1.43522725 0 0 Z " fill="#456A8C" transform="translate(216,53)"/>
<path d="M0 0 C-4.58031088 2.99481865 -4.58031088 2.99481865 -7 4 C-9.4375 3.25 -9.4375 3.25 -11 2 C-3.57142857 -1.57142857 -3.57142857 -1.57142857 0 0 Z " fill="#C0CAD6" transform="translate(341,394)"/>
<path d="M0 0 C4.62 0 9.24 0 14 0 C10 3 10 3 7.421875 2.85546875 C6.09929688 2.52482422 6.09929688 2.52482422 4.75 2.1875 C3.85796875 1.97480469 2.9659375 1.76210938 2.046875 1.54296875 C1.37140625 1.36378906 0.6959375 1.18460937 0 1 C0 0.67 0 0.34 0 0 Z " fill="#163C62" transform="translate(521,341)"/>
<path d="M0 0 C0.66 0.33 1.32 0.66 2 1 C-1.08290155 5.22797927 -1.08290155 5.22797927 -3 7 C-5.8125 7.375 -5.8125 7.375 -8 7 C-5.4837822 4.39391727 -2.94865641 2.10618315 0 0 Z " fill="#31567C" transform="translate(176,75)"/>
<path d="M0 0 C-3.00440021 2.00293347 -4.70993945 2.49271626 -8.1875 3.125 C-9.53908203 3.37636719 -9.53908203 3.37636719 -10.91796875 3.6328125 C-11.60503906 3.75398438 -12.29210937 3.87515625 -13 4 C-9.09650503 -0.27525639 -5.61326496 -0.10591066 0 0 Z " fill="#223555" transform="translate(240,430)"/>
<path d="M0 0 C0.66 0.99 1.32 1.98 2 3 C-2.51617599 3.07654536 -6.59085217 3.10228696 -11 2 C-11 1.67 -11 1.34 -11 1 C-3.52173913 -0.39130435 -3.52173913 -0.39130435 0 0 Z " fill="#294B71" transform="translate(373,53)"/>
<path d="M0 0 C1.48199902 0.44909061 2.96055236 0.90956564 4.4375 1.375 C5.26121094 1.63023438 6.08492188 1.88546875 6.93359375 2.1484375 C9 3 9 3 10 5 C3.49955237 4.38675022 3.49955237 4.38675022 1.0625 2.5 C0 1 0 1 0 0 Z " fill="#3E6181" transform="translate(402,49)"/>
<path d="M0 0 C0.66 0.33 1.32 0.66 2 1 C1.01 2.485 1.01 2.485 0 4 C-1.9453125 4.29296875 -1.9453125 4.29296875 -4.125 4.1875 C-5.40375 4.125625 -6.6825 4.06375 -8 4 C-5.31143836 2.20762558 -3.0466145 1.01553817 0 0 Z " fill="#3B516E" transform="translate(270,427)"/>
<path d="M0 0 C2.31 0 4.62 0 7 0 C3.31265242 2.45823172 0.30300029 3.01242616 -4 4 C-4 3.34 -4 2.68 -4 2 C-2.68 2 -1.36 2 0 2 C0 1.34 0 0.68 0 0 Z " fill="#334A69" transform="translate(336,365)"/>
<path d="M0 0 C3.96 0.33 7.92 0.66 12 1 C11.67 1.66 11.34 2.32 11 3 C5.04296875 3.29296875 5.04296875 3.29296875 3 3 C2.01 2.01 1.02 1.02 0 0 Z " fill="#1C4367" transform="translate(549,343)"/>
<path d="M0 0 C0.33 0.66 0.66 1.32 1 2 C-2.63 2.66 -6.26 3.32 -10 4 C-10 3.34 -10 2.68 -10 2 C-6.49223216 0.39644899 -3.85645121 -0.22036864 0 0 Z " fill="#17406B" transform="translate(284,58)"/>
<path d="M0 0 C1.98 0 3.96 0 6 0 C5.34 1.32 4.68 2.64 4 4 C3.01 4 2.02 4 1 4 C0.67 2.68 0.34 1.36 0 0 Z " fill="#20385C" transform="translate(503,443)"/>
<path d="M0 0 C-3.44450737 2.29633824 -5.93812283 2.54016485 -10 3 C-10 2.34 -10 1.68 -10 1 C-6.52674819 -0.1577506 -3.63932552 -0.06866652 0 0 Z " fill="#233B5E" transform="translate(258,425)"/>
<path d="M0 0 C0.33 0 0.66 0 1 0 C0.67 2.31 0.34 4.62 0 7 C-0.99 7 -1.98 7 -3 7 C-3 3.4833494 -2.23600438 2.59376508 0 0 Z " fill="#D1D9E1" transform="translate(447,386)"/>
<path d="M0 0 C-0.99 0.33 -1.98 0.66 -3 1 C-3 1.66 -3 2.32 -3 3 C-6 4 -6 4 -8.1875 3.0625 C-8.785625 2.711875 -9.38375 2.36125 -10 2 C-8.71211992 1.46987262 -7.41953322 0.9511671 -6.125 0.4375 C-5.40570313 0.14746094 -4.68640625 -0.14257812 -3.9453125 -0.44140625 C-2 -1 -2 -1 0 0 Z " fill="#3F6081" transform="translate(369,370)"/>
<path d="M0 0 C1.65 0.33 3.3 0.66 5 1 C1.31265242 3.45823172 -1.69699971 4.01242616 -6 5 C-6 4.34 -6 3.68 -6 3 C-4.02 2.67 -2.04 2.34 0 2 C0 1.34 0 0.68 0 0 Z " fill="#194370" transform="translate(262,63)"/>
<path d="M0 0 C0.598125 0.20625 1.19625 0.4125 1.8125 0.625 C1.8125 1.285 1.8125 1.945 1.8125 2.625 C2.8025 2.955 3.7925 3.285 4.8125 3.625 C2.8125 4.625 2.8125 4.625 0.8671875 4.06640625 C0.14789063 3.77636719 -0.57140625 3.48632812 -1.3125 3.1875 C-2.03695312 2.90003906 -2.76140625 2.61257813 -3.5078125 2.31640625 C-4.33925781 1.97416016 -4.33925781 1.97416016 -5.1875 1.625 C-2.1875 -0.375 -2.1875 -0.375 0 0 Z " fill="#44526F" transform="translate(224.1875,505.375)"/>
<path d="M0 0 C5.53846154 -0.36923077 5.53846154 -0.36923077 7.875 1.5 C8.24625 1.995 8.6175 2.49 9 3 C8.01 3.495 8.01 3.495 7 4 C4.64018187 3.06421005 2.30368736 2.06652192 0 1 C0 0.67 0 0.34 0 0 Z " fill="#3B5E7D" transform="translate(425,69)"/>
<path d="M0 0 C2.64 1.32 5.28 2.64 8 4 C3.44968209 5.13757948 1.36915594 4.4283779 -3 3 C-2.01 2.67 -1.02 2.34 0 2 C0 1.34 0 0.68 0 0 Z " fill="#577593" transform="translate(398,58)"/>
</svg>
